<svg id="Layer_1" data-name="Layer 1" xmlns="http://www.w3.org/2000/svg" viewBox="0 0 400 400"><defs><style>.cls-1{fill:#231f20;}.cls-2{fill:#fff;stroke:#1e1b1c;stroke-linecap:round;stroke-linejoin:round;}.cls-3{font-size:81.98px;font-family:3D-Thirteen-Pixel-Fonts, 3D Thirteen Pixel Fonts;}.cls-4{fill:#fc7b61;}.cls-5{fill:#ffbd37;letter-spacing:0em;}.cls-6{fill:#9da7fb;letter-spacing:0em;}</style></defs><title>logo1</title><polygon class="cls-1" points="370.55 154.5 370.55 264.67 66.45 264.67 28.23 298.69 28.23 154.5 370.55 154.5"/><polygon class="cls-1" points="385.1 139.22 370.55 154.5 28.23 154.5 42.77 139.22 385.1 139.22"/><polygon class="cls-1" points="385.1 139.22 385.1 249.39 370.55 264.67 370.55 154.5 385.1 139.22"/><polygon class="cls-2" points="356.3 143.19 356.3 253.35 52.19 253.35 13.98 287.37 13.98 143.19 356.3 143.19"/><text class="cls-3" transform="translate(65.51 220.14)">b<tspan class="cls-4" x="36.35" y="0">A</tspan><tspan class="cls-5" x="82.94" y="0">R</tspan><tspan class="cls-6" x="129.54" y="0">T</tspan><tspan x="176.13" y="0">er</tspan></text><polygon class="cls-2" points="370.84 127.91 356.3 143.19 13.98 143.19 28.51 127.91 370.84 127.91"/><polygon class="cls-2" points="370.84 127.91 370.84 238.07 356.3 253.35 356.3 143.19 370.84 127.91"/></svg>