<svg id="Layer_1" data-name="Layer 1" xmlns="http://www.w3.org/2000/svg" viewBox="0 0 400 400"><defs><style>.cls-1{fill:#1e1b1c;}.cls-2{fill:#fff;stroke:#1e1b1c;stroke-linecap:round;stroke-linejoin:round;}.cls-3,.cls-4,.cls-5,.cls-6,.cls-7{fill:none;stroke-miterlimit:10;stroke-width:2px;}.cls-3{stroke:#fc7b61;}.cls-4{stroke:#ffbd37;}.cls-5{stroke:#9da7fb;}.cls-6{stroke:#b2e9c4;}.cls-7{stroke:#000;}</style></defs><title>logo2</title><rect class="cls-1" x="47.65" y="43.36" width="322.02" height="322.02" rx="36.49" ry="36.49"/><rect class="cls-2" x="36.69" y="34.62" width="322.02" height="322.02" rx="36.49" ry="36.49"/><path class="cls-3" d="M165.4,99.1h0a45.19,45.19,0,0,0-21,20.52,91.58,91.58,0,0,0-5.34,12.17c-2.35,8.05-5,25-3.84,33.34.4,2.91,2.18,9.06,4.48,10.89,3.05,2.43,11.5,2.25,15.39,2.57,3.19.26,9.64-.39,12.82,0,2.62.32,8.09,1.06,10.26,2.56,2.55,1.78,6.89,7.15,7.05,10.26.1,2-2.2,5.9-3.85,7.05-3.45,2.42-12.45,2.6-16.66,2.57-4.72-.05-17.46,1.37-18.59-3.21-.64-2.55,5.78-5.76,8.33-6.41,3-.76,9.23,1,12.18,1.92,2,.62,6.22,2,7.57,3.56a10,10,0,0,1,1.45,5.18,23.46,23.46,0,0,1-3.93,10.36c-2,2.37-7.74,5.18-10.57,6.42-1.88.83-6.39.87-7.88,2.28-2.77,2.64-4.26,10.74-5,14.51-1.57,8.35-1.63,25.48-1.45,34,.13,6,.44,18.23,2.07,24,.44,1.56,1.74,4.67,2.9,5.8,2.63,2.55,9.81,5,13.27,6.21,7.84,2.77,24.22,6,32.32,7.88,3.93.92,11.74,4,15.75,3.52,1.95-.24,5.54-2.25,7-3.52,3.23-2.73,8.42-9.74,9.95-13.68,1.87-4.81,2.56-15.36,2.28-20.51-.3-5.46-3-16.18-4.77-21.35-.58-1.68-1.61-5.44-3.1-6.42-2.13-1.39-7.62-.29-10.16-.41-3.63-.18-10.9-1.29-14.5-.83a12.51,12.51,0,0,0-4.56,1.45c-1.88,1.42-5,5.53-5.18,7.87-.13,1.46,1,4.69,2.28,5.39,1.1.61,3.84-.28,5-.83,1.32-.64,3.08-4.67,4.35-3.94,1.06.61-1.65,3.72-1,4.77s3.06,1.16,4.14,1.24c1.56.13,5.11.29,6.22-.83s-.76-6.08.83-6.42c.77-.17,1,2.28,1.65,2.69a8.23,8.23,0,0,0,4.77.42c1.4-.37,4.09-2,4.77-3.32.52-1,.26-3.45,0-4.56-.51-2.14-2.9-5.93-3.94-7.87-1.13-2.11-4.22-6-4.77-8.29-1.86-8,1.25-24.58,2.07-32.74.46-4.52.54-13.92,2.49-18,.46-1,1.84-3.2,2.9-3.11,1.31.1,2.41,3.14,2.9,4.35a48.86,48.86,0,0,1,2.49,13.67A44,44,0,0,1,225,214.91c-2.5,6-10.94,16.19-14.92,21.35-5.86,7.59-21,20.42-24.86,29.21-1.19,2.73-1.7,8.86-1.37,11.82.28,2.4,2.57,6.79,3.23,9.11.54,1.89.39,6.18,1.66,7.67,2.13,2.5,9,4.08,12.22,4.77,2.19.46,6.74.9,8.91.41,4.59-1,14.26-4.82,16.58-8.91a6.61,6.61,0,0,0-.21-4.77c-1.07-1.85-5.24-3.82-7.25-4.55-4.76-1.76-15-2.49-20.1-2.91-2.53-.2-7.93-1.43-10.15-.2a3.62,3.62,0,0,0-1.25,2.07,10.67,10.67,0,0,0,2.08,6.42c1.61,1.63,6.43,2.59,8.7,2.9,3.54.5,10.72-.5,14.3-.62,2.28-.07,6.88.27,9.12-.2,3.67-.79,10.86-3.56,13.88-5.81,2.62-2,6.75-7.26,8.29-10.15,3.86-7.26,6.59-23.81,9.53-31.5,3.15-8.22,12.09-23.57,14.92-31.91.7-2.06,2.55-6.43,1.86-8.49s-4.32-5.25-6.42-5.6c-3.1-.51-8.77,3.43-11.6,4.77-2.25,1.06-8.35,2.23-8.89,4.65a1,1,0,0,0,.1.69c2.24,4.29,17,2.45,23.29,1.29l.11,0a14.5,14.5,0,0,0,11.59-17.1,69.06,69.06,0,0,0-2.79-10.65c-.55-1.4-2.58-3.76-3.11-5.18-1.05-2.81-1.5-8.87-2.07-11.81C268.92,154,266.82,138.29,264,131c-1.14-2.92-6.43-10.77-6.43-10.77l-3.31-6h0a58.57,58.57,0,0,0-18-19.82l-1.68-1.15a8.08,8.08,0,0,0-1.79-.95h0A61.74,61.74,0,0,0,201,88.71h0a71.12,71.12,0,0,0-11,2.55Z"/><path class="cls-4" d="M227.21,86.49l-4.87,1.79a132.41,132.41,0,0,1-45.6,8.1H153.85l-13.93,1.7a25,25,0,0,0-19.34,13.34,11.51,11.51,0,0,0-.85,2c-.57,2-1,6.39,0,8.19,2,3.69,10,7.82,14,9.22,4.93,1.74,15.59,1.79,20.81,2,5.63.28,16.89,0,22.52,0,2.56,0,7.7-.28,10.24,0a103.13,103.13,0,0,1,12.28,2.73,122,122,0,0,1,14,4.78c1.81.84,5.79,2.4,6.83,4.09,1.29,2.12.9,7.43.68,9.9-.86,9.81-7.81,28.53-9.55,38.22-1.23,6.84-1.77,20.81-3.07,27.64-.37,1.91-.71,6.09-2,7.5-1.67,1.77-6.79,3-9.21,3.08-2.63.12-8.3-.62-10.24-2.39-1.2-1.09-2.11-4.53-2-6.14.08-2.22,3-6,3.41-8.19.53-2.86.66-8.88-.34-11.61a18.07,18.07,0,0,0-5.46-6.82c-3.49-2.15-11.94-3.17-16-3.41-2.74-.16-8.19.89-10.92,1-2.22.1-6.79.75-8.88,0-3-1.09-7.43-6.13-9.89-8.19-1.12-.93-4-2.38-4.44-3.75a5.06,5.06,0,0,1,.68-3.41c1.86-2.36,8.11-3.92,10.87-5.07s8.13-4.05,11.08-4.1a14.91,14.91,0,0,1,6.37,2.13c.54.36,1.66,1.32,1.67,2,0,1.16-2,2.88-2.88,3.64a17.36,17.36,0,0,1-4.55,2.58c-3.53,1.09-11,1.37-14.72,1.21-1.38-.05-4.34-.1-5.46-.91s-2.42-3.87-2.89-5.31c-.56-1.74-1.54-5.56-.91-7.28.48-1.31,2.89-3.09,4.1-3.79,3.1-1.81,10.3-3.09,13.66-4.35,3.56-1.35,10.31-5,14-6.12A111.76,111.76,0,0,1,177.89,150a68.47,68.47,0,0,1,9.26-.61c1.89.11,6,.12,7.44,1.36s2.17,5.9,2.57,7.95c1,5.13,1.24,15.66,1.67,20.88s.33,16,1.82,21.1,6.71,14.74,10,19c1.69,2.16,6.82,4.92,8.19,7.29,2.3,4,4.31,13.36,3.8,17.9a14.3,14.3,0,0,1-3,6.53c-3.74,3.55-14,7-19.12,7.74-4.07.59-12.36-.68-16.38-1.52-3.09-.64-9.36-2.2-12-4s-6.61-6.9-8.35-9.56c-.48-.73-1.71-2.32-1.52-3.18.25-1.11,2.46-2.43,3.49-2.89,4.18-1.84,13.5-2.55,18.06-2.58,4.1,0,12.19,1.55,16.24,2.13,3.42.49,10.31,1.25,13.65,2.12,1.69.44,5.47,1.05,6.53,2.43a3.77,3.77,0,0,1,.3,3c-1.19,1.94-6.24,3-8.49,3.33-2.74.46-8.35,0-11.08-.45-4.28-.76-12.29-4.43-16.54-5.31-3.06-.64-9.38-.58-12.44-1.22-2.42-.5-7.06-3.79-9.41-3a5.87,5.87,0,0,0-2.88,3.94c-.06,2.6,4,6.76,5.76,8.65,3,3.19,10.25,8.22,13.93,10.58,4.17,2.67,14,5.83,17.45,9.33,1.22,1.22,2.69,4.46,3.25,6.09,1.78,5.26.71,17.2,3.65,21.91.92,1.48,4,3.53,5.68,4.06,2.12.68,6.76.53,8.93,0,4.22-1.05,11.82-5.66,15.41-8.12,5.11-3.49,15.53-10.9,18.67-16.23s4.13-18.53,5.28-24.75c1.2-6.56,3.75-19.71,4.05-26.37.3-6.5-1.83-19.47-1.62-26,.21-6.34,3.92-18.86,3.25-25.16-.15-1.38-.82-4.29-1.85-5.22-2.31-2.07-9.06-2.17-12.08-2.89-1.6-.38-4.77-1.51-6.42-1.51a17.86,17.86,0,0,0-5.28,1.26c-1,.45-3.31,1.48-3.78,2.52a4.24,4.24,0,0,0,.38,2.76c1.38,2.35,6.14,5.58,8.68,6.55s8.4,1.07,11.2.88c1.74-.13,5.27-.68,6.79-1.51a24.79,24.79,0,0,0,7.05-7.05c2-3.41,3.52-11.32,4-15.22a97.38,97.38,0,0,0,0-19.76c-.83-5.62-4.44-16.48-6.55-21.76-1-2.61-3.34-7.27-5.64-11.75a45.53,45.53,0,0,0-16.75-18.07h0A14.39,14.39,0,0,0,231,85Z"/><path class="cls-5" d="M178.54,75.69l-4.63,1.5c-4.62,1.49-4.41,2.06-8.53,4.64-3.76,2.37-11.58,6.69-15.06,9.46-3.21,2.56-9.46,8.12-11.61,11.62-3.52,5.7-7.12,18.87-8.41,25.45-1.23,6.32-1.51,19.27-1.73,25.71-.12,3.52-.84,10.66,0,14.08.35,1.43,1.47,4.43,2.72,5.19,1.85,1.12,6.53-.41,8.65,0,3.6.7,10.4,3.66,13.6,5.44,1.81,1,5.61,3.16,6.67,4.94.95,1.61,1.15,5.55,1,7.42s-.87,6.15-2.35,7.41c-2.78,2.38-10.8,2.13-14.46,2.23-3,.07-9.68.59-12.11-1.24a3.14,3.14,0,0,1-1-2.47c.67-1.84,5.05-3.11,6.92-3.71,3.32-1.06,10.4-2.27,13.84-1.73a13.89,13.89,0,0,1,5.15,2.4c1.27,1.08,3.86,3.88,3.73,5.55-.05.77-1.59,1.68-2.08,2.27-2,2.43-6.34,7.21-7.73,10.07s-2.3,9.64-3.24,12.81c-1.47,4.89-5.95,14.25-6.68,19.3-1.24,8.63.18,26.23,1.62,34.83.74,4.4,2.85,13.26,5.06,17.14,1.27,2.25,5,6,7,7.58a67,67,0,0,0,12.81,7A78.36,78.36,0,0,0,182,314a34.77,34.77,0,0,0,7.14,0c5.59-.86,16.23-4.92,21.55-6.85s17.07-4.26,20.75-8.48c2.26-2.6,3-9.94,3.43-13.36.35-2.81,1.07-8.73,0-11.36-1-2.45-5.08-6.3-7.4-7.58-5.21-2.88-17.34-4.58-23.28-5.05-4.14-.33-12.67-.45-16.6.9-4.1,1.41-11.91,6.26-14.25,9.92-.42.66-1,2.44-.54,3.07,1,1.39,5.12.94,6.85.9,5.86-.11,17.28-3.25,23.1-4,4.85-.59,14.63-2,19.49-1.44a16.68,16.68,0,0,1,4.69,1.44c1.31.74,3.93,2.59,4.51,4s.22,4.85-.36,6.32c-1.09,2.74-5.1,7.43-7.58,9s-8.17,2.72-11,3.07c-5.73.69-17.51.77-23.09-.72a31.72,31.72,0,0,1-9.75-5.24c-1.37-1.24-3.69-4.34-4.15-6.13-.89-3.52.15-11.05,1.45-14.44,1.17-3.07,5.44-8.3,7.76-10.64,4.74-4.79,15.83-12.66,21.65-16.06,4.86-2.85,15.72-6.33,20.57-9.2,6.53-3.88,18.63-13.22,24.18-18.41,3.1-2.9,9-9.19,11.18-12.81a10.18,10.18,0,0,0,1.27-3.07,17.9,17.9,0,0,0-1.09-6.67,16.5,16.5,0,0,0-3.42-4.69,19.42,19.42,0,0,0-6.32-3.07,30.58,30.58,0,0,0-9.2.36,28.75,28.75,0,0,0-7.58,2.89,6.67,6.67,0,0,0-2.35,2.34,4,4,0,0,0,.36,2,9,9,0,0,0,2.71,3.42c1.85,1,6.22.38,8.3.37,2.44,0,7.5.41,9.74-.55a10.12,10.12,0,0,0,3.49-3.24c1-1.69,2.11-5.67,1.75-7.58s-3.15-5.06-4.51-6.5c-3.85-4.06-12.45-11.74-17.69-13.71-2.11-.8-6.77-.78-9-.54-1.86.19-5.65,1-7.22,2-2.15,1.4-5.14,5.76-6.49,7.94-6.43,10.39-15.74,33.13-20,44.57-1.52,4.06-4.59,12.29-5.05,16.6-.17,1.62-.13,5,.54,6.5a11.53,11.53,0,0,0,4,4.15c2.24,1.08,7.44,1.1,9.92.9a17.32,17.32,0,0,0,4.87-1.27c1-.51,3.24-1.79,3.61-2.88.77-2.24-1.27-7-2.16-9.2-.6-1.47-2.77-3.91-3.25-5.42-1.77-5.53-1-17.41-1.8-23.16-.73-5.18-3.12-15.38-4.15-20.5-.5-2.48-2.21-7.41-2-9.93.29-3.18,2.67-9.42,4.69-11.91,3.17-3.89,12.26-8.84,16.78-11,3.59-1.72,11.49-3.34,15.16-4.87,3-1.28,9.4-3.79,11.73-6.14s5.25-9.12,6.31-12.45c.93-2.91,2.18-9.06,1.81-12.09-.55-4.41-4.42-12.7-6.86-16.42a51.69,51.69,0,0,0-9.92-10.28c-3.2-2.26-10.54-5.28-14.26-6.5-1.49-.49-4.43-1.13-7.18-1.67a21.76,21.76,0,0,1-9.32-4.27,6.29,6.29,0,0,0-4.62-2c-.9-.06-1.26.05-1.88,0l-1.72-.07c-3,0-3.37.14-5.69,0h0a11.75,11.75,0,0,0-2.71-.26c-.51,0-4.35,0-6.15.21C184.61,73.47,180.43,75,178.54,75.69Z"/><path class="cls-6" d="M182.27,80.51S165.55,88,160.53,91.46a54.92,54.92,0,0,0-9.1,8.26c-3.2,4.07-8.47,13.22-9.94,18.2-1,3.32-.62,10.37-1,13.81-1.46,12.92-6.45,38.48-7.92,51.39-.32,2.86-1.21,8.61-.84,11.46.2,1.55.85,4.87,2,5.9,2,1.72,7.67,1.83,10.28,2,3.24.23,9.89.36,13-.67a14,14,0,0,0,5.23-3.54,3.53,3.53,0,0,0,.67-2.36c-.63-1.6-4.27-3-5.9-3.54a23.92,23.92,0,0,0-7.75-1c-2.13.23-6.43,1.5-8.09,2.86a21.81,21.81,0,0,0-5.56,9.44,14.87,14.87,0,0,0,1.18,7.08c2.76,5.18,12.21,12.82,17,16.17,5,3.49,16.26,8.46,21.91,10.79,4.64,1.91,14.36,4.56,19,6.4,1.42.56,4.53,1.39,5.56,2.53a3.93,3.93,0,0,1,.84,2.52,5,5,0,0,1-2.53,2.36c-5.12,1.71-16.85.77-21.62-2.17a3.87,3.87,0,0,1-1.58-2.33c-1.26-7.67,5.53-23.12,7.36-30.88.61-2.57,1.47-7.8,2.36-10.28.32-.89.81-3,1.69-3.37a3.1,3.1,0,0,1,2.36.84c5.95,6.69,5.49,26.31,8.08,34.88,1.94,6.42,6.41,19.12,9.44,25.11,1,2.06,4.39,5.53,5.05,7.75.32,1.05.78,3.6,0,4.38-2.05,2.05-8.72.22-11.62,0a98.18,98.18,0,0,1-15-2.36c-2-.59-5.55-2.94-7.58-3.37a13.12,13.12,0,0,0-4.55,0c-1,.26-3.14,1.08-3.54,2-.57,1.37.93,4.37,1.52,5.73,1,2.33,3.46,6.95,5.39,8.59a16.25,16.25,0,0,0,5.56,2.36c2.85.58,8.74.33,11.63,0,4.29-.49,13.15-1.64,16.85-3.87a12.86,12.86,0,0,0,4-4.72c.6-1.62.33-5.21,0-6.91a44.54,44.54,0,0,0-5.06-12.47c-.62-.91-2.15-2.69-3.2-3a8.54,8.54,0,0,0-5.22.67c-2.58,1.61-5,7.62-6.74,10.11-.33.47-.79,1.71-1.35,1.86a2.49,2.49,0,0,1-1.85-.85c-1.52-2.09.27-8.13-1.18-10.27a4,4,0,0,0-2.19-1.18c-2.1-.22-6.26,1.31-8.09,2.36-3.72,2.13-10,8.28-12.47,11.79-1.21,1.73-2.68,5.75-3.37,7.75-1.27,3.7-3.58,11.26-3.87,15.17-.16,2.11,0,6.49.84,8.42a15.73,15.73,0,0,0,4,4.38,47.31,47.31,0,0,0,11.63,5.56c5.38,1.48,16.66,1.77,22.24,2,7.11.33,21.52,1.51,28.48,0,3.48-.75,10.42-3.41,13-5.89,5.73-5.59,12.19-21,14-28.82.95-4.14.17-12.76,0-17-.36-8.75-.39-26.49-2.87-34.88a60.47,60.47,0,0,0-8.59-16,37.64,37.64,0,0,0-7.58-6.07c-3.45-2-12.2-2.9-14.83-5.89-1.24-1.41-2.34-5.44-1.86-7.25.6-2.22,4.53-5.31,6.45-6.57a27,27,0,0,1,5.69-2.19,48.08,48.08,0,0,1,7.24-1.35,37.71,37.71,0,0,1,8.43.34c.9.21,2.79.79,3.37,1.52a2.64,2.64,0,0,1,.33,1.68c-.27,1.07-2,2.71-2.86,3.37a31.49,31.49,0,0,1-9.1,4c-2.39.53-7.55,1.2-9.77.17-1.19-.55-2.81-2.84-3.33-4-1.08-2.5-2.16-8.18-1.39-10.78a12.26,12.26,0,0,1,4.55-5.4c2.14-1.11,7.2-.73,9.6-.84,1.6-.07,4.84.32,6.41,0,2.24-.45,6.64-2.11,8.42-3.54a16.33,16.33,0,0,0,4-5.73c.91-2.85.19-9,0-12-.48-7.79-2.25-23.36-3.87-31-.88-4.13-2.7-12.56-4.89-16.18-1.62-2.67-6.51-6.78-8.93-8.76a109.13,109.13,0,0,0-11.62-7.92c-2.07-1.16-6.42-3.14-10.2-4.8A42.88,42.88,0,0,0,203,80l-7.88-.62L193,79.15a25.45,25.45,0,0,0-10.74,1.36Z"/><path class="cls-3" d="M155.29,99.08l11.29-5.64a59.29,59.29,0,0,1,15.93-5.32l21.32-3.87,11.28-1.61A32,32,0,0,1,230,84l8,2.72a32,32,0,0,1,17.71,14.79h0A32,32,0,0,1,259.59,120l-.89,10a63.06,63.06,0,0,1-5.19,20L253,151a37.45,37.45,0,0,1-11.49,14.54l-.22.16a13,13,0,0,1-7.9,2.67h-3.75a4.9,4.9,0,0,1-4.1-2.2h0a4.93,4.93,0,0,1,1.54-6.95l2.88-1.75a19.46,19.46,0,0,1,11.13-2.82h0a14.16,14.16,0,0,1,8.46,3.33l1.9,1.6a11.12,11.12,0,0,1,3.86,10l-1,7.15a48.5,48.5,0,0,1-3.64,13l-3.12,7.15a41.22,41.22,0,0,1-17.33,19.27h0a16.87,16.87,0,0,1-7,2.18l-20.5,1.74c-.74.07-1.49.1-2.24.1h-3.32A4.22,4.22,0,0,1,194.3,219h0a4.24,4.24,0,0,1-1.07-4.51l8.25-23.09a59.78,59.78,0,0,0,1.85-6.16l5.74-23.61a2,2,0,0,1,1.8-1.51h0a2,2,0,0,1,1.95,1.2l.85,2a37.58,37.58,0,0,1,3.05,15.4l-.27,18-.15,2.48a20.68,20.68,0,0,1-4.84,12.08l-12.13,14.36-10.05,13.13a39,39,0,0,0-3.13,4.79l-5.79,10.48a7.14,7.14,0,0,0-.88,3.13h0a7.07,7.07,0,0,0,1.83,5.05l6.93,7.65a17.57,17.57,0,0,0,5,3.84h0a17.62,17.62,0,0,0,8.08,2h3.07a17.59,17.59,0,0,0,9.28-2.64l5.33-3.29a17.52,17.52,0,0,0,5.49-5.35h0a6.77,6.77,0,0,0,1-4.86l-.09-.53a7.26,7.26,0,0,0-2.13-4h0a7.29,7.29,0,0,0-6.26-1.91l-5.78,1a6.83,6.83,0,0,0-1,.25l-17.77,5.74-4,.79a2.71,2.71,0,0,1-2.75-1.11h0a2.71,2.71,0,0,1,0-3.13l5.08-6.9a4.37,4.37,0,0,1,3.24-1.76l4.44-.26a3.63,3.63,0,0,1,3.77,2.83l.19.85a1.26,1.26,0,0,0,2,.76h0a1.22,1.22,0,0,0,.49-.67l2.14-6.95a8.17,8.17,0,0,1,2.88-4.12l1.86-1.41a8.23,8.23,0,0,1,5.21-1.66h.3a8.24,8.24,0,0,1,4.82,1.77h0a6.29,6.29,0,0,1,2.38,5.06l-.13,5.63-1.52,12.36-1.22,13a40.34,40.34,0,0,1-1.1,6.27l-3.32,12.76a12.08,12.08,0,0,1-3.15,5.5h0a12,12,0,0,1-5.79,3.21l-6.7,1.57a12.06,12.06,0,0,1-2.74.31h-4.2a12.09,12.09,0,0,1-9.26-4.32L183,297.53a36.36,36.36,0,0,0-6-5.72l-2.63-2a36.08,36.08,0,0,0-5-3.16l-.7-.37a22.58,22.58,0,0,1-9.07-8.64h0a34.15,34.15,0,0,1-3.79-9.48L152,252.09l-7.4-30c-.14-.58-.27-1.16-.38-1.75l-2.34-12.73a5.53,5.53,0,0,0-.57-1.61l-2-3.74a5.54,5.54,0,0,1,.64-6.16h0a30.6,30.6,0,0,1,11.24-8.36h0a13,13,0,0,0,5.16-4l5.81-7.51a25.64,25.64,0,0,0,5.24-13.1h0a8.85,8.85,0,0,0-1.37-.24l-.82-.06a10.85,10.85,0,0,0-4.59.6L148.09,168a10.87,10.87,0,0,0-5.72,4.79h0a3.18,3.18,0,0,0-.07,3.05l.4.78a4.8,4.8,0,0,0,5.18,2.5l4.32-.85a16.36,16.36,0,0,0,6.8-3.08l2.21-1.7a24.53,24.53,0,0,0,3.91-3.78l4.41-5.35a15.7,15.7,0,0,0,3.41-7.73l.67-4.66a5.21,5.21,0,0,0-3.51-5.68h0A5.07,5.07,0,0,0,168,146l-5.21.42a34,34,0,0,0-10.26,2.5h0A44.37,44.37,0,0,1,141.08,152l-2.71.36a5.3,5.3,0,0,1-4.82-1.93l-.6-.74a10.36,10.36,0,0,1-2.29-6.49V137a38.21,38.21,0,0,1,4.93-18.77l.47-.82A45.4,45.4,0,0,1,155.29,99.08Z"/><path class="cls-7" d="M142.38,116.72l-9,31.93a2.14,2.14,0,0,0,.63,2.16h0a5,5,0,0,0,5.16.91l13.82-5.53a22.27,22.27,0,0,1,3.31-1l.21,0a11.81,11.81,0,0,1,8.76,1.47h0a2.12,2.12,0,0,1,.91,1.17l0,.11a15.76,15.76,0,0,1-.16,9.93h0a35.41,35.41,0,0,1-3.1,6.63l-1.64,2.73a3,3,0,0,1-2.52,1.43h0a17,17,0,0,1-9.64-3h0a2.12,2.12,0,0,1,0-3.51l1.78-1.19a14,14,0,0,1,4.76-2h0a42.59,42.59,0,0,1,11.81-.87l3,.2a2.13,2.13,0,0,1,2,2.12h0a3.5,3.5,0,0,1-.86,2.29l-7.79,8.94c-.82.95-1.67,1.86-2.55,2.74l-14.61,14.61a2.11,2.11,0,0,0-.61,1.28h0a39.09,39.09,0,0,0,.66,12.3l4.94,23a47.48,47.48,0,0,1,1.06,10V242a56.37,56.37,0,0,0,1.95,14.68l9,33.14a1.87,1.87,0,0,0,.2.49h0a18.48,18.48,0,0,0,9.13,8.05l11.76,4.8a11.22,11.22,0,0,0,4.2.82h0A52,52,0,0,0,204,301.71l7.64-2.3a39,39,0,0,0,8.33-3.63l3.69-2.15a25,25,0,0,0,8.82-8.71h0a30.85,30.85,0,0,0,4.39-15.85h0a13,13,0,0,0-2.54-7.71h0a15.93,15.93,0,0,0-12.8-6.44h-1.93l-18.18,1.3a28.74,28.74,0,0,1-4.45,0l-3.24-.25a18.12,18.12,0,0,1-7.58-2.32l-1.57-.9a2.12,2.12,0,0,1-.34-3.44h0a10.73,10.73,0,0,1,8.37-2.57h0a2.13,2.13,0,0,1,1.61,1.12l1.21,2.29a2.12,2.12,0,0,0,3.57.28l1.56-2.07a7.8,7.8,0,0,1,5.1-3l.59-.09a6.39,6.39,0,0,1,5.85,2.22l1,1.19a11.71,11.71,0,0,1,2.62,6l.25,2a13.2,13.2,0,0,1-.85,6.58h0a10.63,10.63,0,0,1-5.75,5.86h0a20.28,20.28,0,0,1-5.93,1.5l-5.84.57a20.54,20.54,0,0,1-4.83-.11l-1-.14a15.79,15.79,0,0,1-10.8-6.72h0a3.47,3.47,0,0,1-.54-2.66l.55-2.78a16,16,0,0,1,2.37-5.71l8.4-12.6a10.14,10.14,0,0,0,1.26-2.66h0a36,36,0,0,1,6.81-12.61l.77-.93a6.2,6.2,0,0,1,4.77-2.23h0a2.11,2.11,0,0,1,1.34.47l3.21,2.61a5,5,0,0,1,1.81,4.31h0a2.1,2.1,0,0,1-1.44,1.82l-1.11.38a59.57,59.57,0,0,1-13,2.75l-7.77.74a2.17,2.17,0,0,1-1.63-.55h0a4.43,4.43,0,0,1,.12-6.63l1.63-1.38a7.6,7.6,0,0,0,2.44-4L195.16,205l5.4-21.46a2.12,2.12,0,0,1,2.27-1.59h0a2.12,2.12,0,0,1,1.91,2l.79,21.19A17.4,17.4,0,0,1,202,216.35l-3.24,4.28a2.59,2.59,0,0,1-2.71.94h0a2.13,2.13,0,0,1-1.58-2.2l.09-1.36a26.75,26.75,0,0,1,2-8.46l2.89-7a7.81,7.81,0,0,1,5.59-4.68l1.06-.23a5.72,5.72,0,0,1,5.33,1.62l5.48,5.69a1.07,1.07,0,0,1,.14.16h0a4.88,4.88,0,0,0,4.9,1.77l.15,0a2.1,2.1,0,0,0,.53-.19L235,200.14a16,16,0,0,0,3.46-2.48l2.79-2.65a24.65,24.65,0,0,0,5.66-8.14l2.48-5.79,1.87-4.52a22.55,22.55,0,0,0,1.72-8.62h0a2.12,2.12,0,0,0-1.21-1.92l-.09,0a18.66,18.66,0,0,0-10.44-1.65L236,165a5.56,5.56,0,0,0-3.16,1.56h0a8.62,8.62,0,0,0-2.41,4.72h0a2.32,2.32,0,0,0,1.48,2.54l1.06.4a21.62,21.62,0,0,0,11.32,1.06h0a16.43,16.43,0,0,0,7.94-3.77h0a15.43,15.43,0,0,0,5.2-9.74l1.05-8.52a5.44,5.44,0,0,0-1.38-4.34h0a19.29,19.29,0,0,0-10.91-6l-2.56-.45a22.16,22.16,0,0,0-9,.27l-1.2.28a19,19,0,0,0-6.8,3.15l-.24.18a22.53,22.53,0,0,0-6.39,7.27l-5.68,10.26a29.82,29.82,0,0,1-4.69,6.31l-.79.82a4.08,4.08,0,0,1-3.66,1.16h0a6.65,6.65,0,0,1-5.26-5h0a15.49,15.49,0,0,1,.31-8.16L204,146.71l2.45-6L214.33,125a78.81,78.81,0,0,1,5.15-9.08l6-11.08a68.73,68.73,0,0,0,7.28-14.61h0a2.14,2.14,0,0,0-.3-2h0a9.29,9.29,0,0,0-6.16-3.67L222.49,84a59,59,0,0,0-16.14-.07h0a149.57,149.57,0,0,0-17,3.53l-10.94,3.1a92.77,92.77,0,0,0-12.65,4.6L157,99.08a14.45,14.45,0,0,0-1.51.79l-.59.37A28.37,28.37,0,0,0,142.38,116.72Z"/></svg>